<svg width="44" height="36" viewBox="0 0 44 36" fill="none" xmlns="http://www.w3.org/2000/svg">
<path fill-rule="evenodd" clip-rule="evenodd" d="M22.3319 5.55787C20.1678 5.55787 18.2028 6.44391 16.7821 7.89378C15.3482 9.33024 14.4719 11.3171 14.4719 13.5054C14.4719 15.6936 15.3615 17.6805 16.7821 19.1169C18.2161 20.5668 20.1678 21.4528 22.3319 21.4528C24.4961 21.4528 26.4611 20.5534 27.8817 19.1169C29.3156 17.667 30.1919 15.6936 30.1919 13.5054C30.1919 11.3171 29.3024 9.33024 27.8817 7.89378C26.4611 6.44391 24.4961 5.55787 22.3319 5.55787ZM22.3319 0C26.0229 0.0134248 29.3687 1.517 31.7719 3.96032C34.1883 6.40363 35.6753 9.77326 35.6753 13.5054C35.6753 17.2374 34.1883 20.6205 31.7719 23.0504C29.3555 25.4937 26.0229 26.9973 22.3319 26.9973C18.6409 26.9973 15.2951 25.4937 12.892 23.0504C10.4756 20.6071 8.98854 17.2374 8.98854 13.5054C8.98854 9.77326 10.4756 6.39021 12.892 3.96032C15.2951 1.517 18.6409 0.0134248 22.3319 0ZM38.5033 13.5054C38.5033 11.9749 39.7381 10.7264 41.2517 10.7264C42.7652 10.7264 44 11.9749 44 13.5054H43.9867C43.9867 19.5599 41.5703 25.0373 37.6536 28.9976C33.7369 32.9579 28.3199 35.4012 22.3319 35.4012C16.344 35.4012 10.927 32.9445 7.01026 28.9976C3.09355 25.0373 0.677134 19.5599 0.663857 13.5054C0.663857 11.9749 1.88534 10.7264 3.39892 10.7264C4.9125 10.7264 6.14726 11.9749 6.14726 13.5054C6.14726 18.0161 7.95293 22.0972 10.8872 25.0641C13.8214 28.031 17.8576 29.8702 22.3187 29.8702C26.7797 29.8702 30.8159 28.031 33.7501 25.0641C36.6976 22.0972 38.5166 18.0161 38.5033 13.5054Z" fill="#de46c0"/>
<path d="M3.41219 2.56414C5.29752 2.56414 6.82438 4.10799 6.82438 6.01432C6.82438 7.92064 5.29752 9.46449 3.41219 9.46449C1.52686 9.46449 0 7.92064 0 6.01432C0 4.10799 1.52686 2.56414 3.41219 2.56414Z" fill="#de46c0"/>
</svg>
