<svg width="24" height="24" viewBox="0 0 24 24" fill="none" xmlns="http://www.w3.org/2000/svg">
<path fill-rule="evenodd" clip-rule="evenodd" d="M8.18078 6.96888C8.25062 7.03854 8.30604 7.12131 8.34385 7.21242C8.38166 7.30354 8.40112 7.40122 8.40112 7.49988C8.40112 7.59853 8.38166 7.69621 8.34385 7.78733C8.30604 7.87844 8.25062 7.96121 8.18078 8.03088L4.21028 11.9999L8.18078 15.9689C8.25051 16.0386 8.30583 16.1214 8.34356 16.2125C8.3813 16.3036 8.40073 16.4013 8.40073 16.4999C8.40073 16.5985 8.3813 16.6961 8.34356 16.7872C8.30583 16.8784 8.25051 16.9611 8.18078 17.0309C8.11105 17.1006 8.02826 17.1559 7.93716 17.1937C7.84605 17.2314 7.7484 17.2508 7.64978 17.2508C7.55116 17.2508 7.45351 17.2314 7.3624 17.1937C7.27129 17.1559 7.18851 17.1006 7.11878 17.0309L2.61878 12.5309C2.54893 12.4612 2.49352 12.3784 2.45571 12.2873C2.4179 12.1962 2.39844 12.0985 2.39844 11.9999C2.39844 11.9012 2.4179 11.8035 2.45571 11.7124C2.49352 11.6213 2.54893 11.5385 2.61878 11.4689L7.11878 6.96888C7.18845 6.89903 7.27121 6.84362 7.36233 6.80581C7.45345 6.768 7.55113 6.74854 7.64978 6.74854C7.74843 6.74854 7.84611 6.768 7.93723 6.80581C8.02835 6.84362 8.11111 6.89903 8.18078 6.96888Z" fill="#F2F2F2"/>
<path fill-rule="evenodd" clip-rule="evenodd" d="M3.15039 11.9999C3.15039 11.801 3.22941 11.6102 3.37006 11.4696C3.51071 11.3289 3.70148 11.2499 3.90039 11.2499H19.6504C19.8493 11.2499 20.0401 11.3289 20.1807 11.4696C20.3214 11.6102 20.4004 11.801 20.4004 11.9999C20.4004 12.1988 20.3214 12.3896 20.1807 12.5302C20.0401 12.6709 19.8493 12.7499 19.6504 12.7499H3.90039C3.70148 12.7499 3.51071 12.6709 3.37006 12.5302C3.22941 12.3896 3.15039 12.1988 3.15039 11.9999Z" fill="#F2F2F2"/>
</svg>
