<svg width="24" height="24" viewBox="0 0 24 24" fill="none" xmlns="http://www.w3.org/2000/svg">
<path fill-rule="evenodd" clip-rule="evenodd" d="M15.2196 17.031C15.1498 16.9614 15.0944 16.8786 15.0565 16.7875C15.0187 16.6964 14.9993 16.5987 14.9993 16.5C14.9993 16.4014 15.0187 16.3037 15.0565 16.2126C15.0944 16.1215 15.1498 16.0387 15.2196 15.969L19.1901 12L15.2196 8.03103C15.1499 7.9613 15.0946 7.87852 15.0568 7.78741C15.0191 7.6963 14.9997 7.59865 14.9997 7.50003C14.9997 7.40142 15.0191 7.30377 15.0568 7.21266C15.0946 7.12155 15.1499 7.03877 15.2196 6.96903C15.2893 6.8993 15.3721 6.84399 15.4632 6.80625C15.5543 6.76851 15.652 6.74909 15.7506 6.74909C15.8492 6.74909 15.9469 6.76851 16.038 6.80625C16.1291 6.84399 16.2119 6.8993 16.2816 6.96903L20.7816 11.469C20.8515 11.5387 20.9069 11.6215 20.9447 11.7126C20.9825 11.8037 21.002 11.9014 21.002 12C21.002 12.0987 20.9825 12.1964 20.9447 12.2875C20.9069 12.3786 20.8515 12.4614 20.7816 12.531L16.2816 17.031C16.2119 17.1009 16.1292 17.1563 16.0381 17.1941C15.9469 17.2319 15.8493 17.2514 15.7506 17.2514C15.652 17.2514 15.5543 17.2319 15.4632 17.1941C15.372 17.1563 15.2893 17.1009 15.2196 17.031Z" fill="#F2F2F2"/>
<path fill-rule="evenodd" clip-rule="evenodd" d="M20.25 12C20.25 12.1989 20.171 12.3897 20.0303 12.5303C19.8897 12.671 19.6989 12.75 19.5 12.75L3.75 12.75C3.55109 12.75 3.36032 12.671 3.21967 12.5303C3.07902 12.3897 3 12.1989 3 12C3 11.8011 3.07902 11.6103 3.21967 11.4697C3.36032 11.329 3.55109 11.25 3.75 11.25L19.5 11.25C19.6989 11.25 19.8897 11.329 20.0303 11.4697C20.171 11.6103 20.25 11.8011 20.25 12Z" fill="#F2F2F2"/>
</svg>
