<svg width="218" height="230" viewBox="0 0 218 230" fill="none" xmlns="http://www.w3.org/2000/svg">
<path d="M128.774 24.6753C131.703 25.3544 133.844 26.9391 135.308 29.5424C136.773 32.0326 137.111 34.8623 136.435 37.9184C135.759 40.9745 134.182 43.2383 131.816 44.9361C129.45 46.6339 126.746 47.0867 123.817 46.4076L115.705 44.4834L120.662 22.8643L128.774 24.6753ZM124.155 44.7097C126.633 45.2757 128.886 44.8229 130.914 43.4647C132.942 42.1064 134.182 40.069 134.858 37.4656C135.421 34.8623 135.196 32.4853 133.956 30.3347C132.717 28.1841 130.914 26.8259 128.436 26.2599L122.014 24.7885L117.733 43.3515L124.155 44.7097Z" fill="white"/>
<path d="M149.278 57.2736L149.053 46.747L142.969 43.3514L138.463 51.2746L136.998 50.4823L147.926 31.127L155.475 35.4281C157.052 36.3336 158.066 37.5787 158.516 39.3897C158.967 41.2008 158.854 42.7854 157.953 44.3701C157.164 45.7283 156.151 46.6338 154.799 47.1998C153.447 47.7657 152.095 47.8789 150.63 47.5394L150.855 58.4055L149.278 57.2736ZM148.715 33.2775L143.87 41.8799L149.954 45.3888C151.081 46.0679 152.32 46.1811 153.672 45.8415C154.911 45.502 155.925 44.7096 156.601 43.4646C157.277 42.2195 157.39 40.9744 157.052 39.7293C156.714 38.371 155.925 37.4655 154.799 36.7864L148.715 33.2775Z" fill="white"/>
<path d="M167.868 71.0829C164.713 70.9697 162.122 69.7246 159.869 67.4608C157.728 65.0839 156.714 62.3673 156.827 59.198C156.939 56.0287 158.179 53.4254 160.432 51.2748C162.685 49.1242 165.502 48.1055 168.544 48.2187C171.698 48.3319 174.289 49.577 176.543 51.8407C178.683 54.2177 179.697 56.9342 179.584 60.1035C179.472 63.2728 178.232 65.8762 175.979 68.0268C173.726 70.1774 171.022 71.1961 167.868 71.0829ZM158.404 59.3112C158.291 62.0278 159.193 64.2915 160.995 66.3289C162.798 68.3663 165.164 69.385 167.755 69.385C170.459 69.4982 172.712 68.5927 174.74 66.6685C176.768 64.8575 177.782 62.4805 177.894 59.8772C178.007 57.1606 177.106 54.8968 175.303 52.8594C173.501 50.822 171.135 49.8033 168.544 49.8033C165.84 49.6902 163.586 50.5957 161.559 52.5199C159.643 54.3309 158.517 56.5947 158.404 59.3112Z" fill="white"/>
<path d="M192.428 75.9498C193.329 77.7608 193.442 79.4586 192.766 81.2697C192.09 83.0807 190.963 84.3258 189.273 85.2313C187.471 86.1368 185.781 86.25 184.091 85.5709C182.401 85.0049 181.049 83.7598 180.148 81.9488L177.556 76.6289L170.008 80.3642L169.332 78.8927L189.16 69.1584L192.428 75.9498ZM181.612 81.2697C182.288 82.6279 183.302 83.5334 184.541 83.9862C185.893 84.439 187.245 84.3258 188.597 83.6466C189.949 82.9675 190.85 81.9488 191.414 80.7037C191.864 79.3455 191.752 77.9872 191.076 76.6289L188.484 71.309L179.021 75.9498L181.612 81.2697Z" fill="white"/>
<path d="M177.442 101.531C176.992 99.4933 177.104 97.6823 177.78 96.0976C178.456 94.513 179.47 93.2679 180.935 92.4756L182.061 93.7206C180.822 94.3998 179.921 95.4185 179.358 96.6636C178.794 97.9086 178.682 99.4933 179.132 101.191C179.47 103.002 180.146 104.247 181.16 104.926C182.174 105.719 183.301 105.945 184.54 105.719C185.779 105.492 186.568 104.813 187.018 103.794C187.469 102.776 187.807 101.191 188.032 99.1537C188.145 98.3614 188.258 97.7954 188.258 97.4559C188.258 97.1163 188.37 96.6636 188.483 95.9844C188.596 95.3053 188.708 94.8525 188.821 94.513C188.934 94.1734 189.159 93.8338 189.384 93.2679C189.61 92.8151 189.835 92.4756 190.173 92.136C190.398 91.9096 190.849 91.6832 191.187 91.3437C191.638 91.1173 192.088 90.8909 192.652 90.7777C194.454 90.4382 195.919 90.7777 197.271 91.7964C198.623 92.8151 199.411 94.2866 199.862 96.2108C200.2 97.9086 200.087 99.4933 199.524 100.852C198.961 102.21 198.059 103.342 196.82 104.134L195.806 102.889C198.059 101.304 198.961 99.1537 198.397 96.5504C198.059 95.0789 197.496 93.947 196.482 93.2679C195.468 92.5888 194.454 92.3624 193.215 92.5888C192.088 92.8151 191.3 93.3811 190.849 94.3998C190.398 95.3053 190.173 96.7768 189.948 98.8142C189.722 100.059 189.61 101.078 189.497 101.87C189.384 102.549 189.159 103.455 188.821 104.247C188.483 105.153 188.032 105.832 187.469 106.285C186.906 106.737 186.117 107.077 185.216 107.303C183.413 107.643 181.836 107.303 180.484 106.285C178.794 105.266 177.893 103.681 177.442 101.531Z" fill="white"/>
<path d="M196.934 146.467L175.303 141.826L176.429 136.28L188.033 138.77L180.485 131.639L180.598 131.073L190.399 127.677L178.795 125.187L179.922 119.641L201.553 124.282L200.426 129.828L190.061 133.337L198.06 140.807L196.934 146.467Z" fill="white"/>
<path d="M167.079 156.088L170.346 156.767L174.177 150.202L171.923 147.712L174.965 142.392L190.4 159.71L186.795 165.822L164.037 160.955L167.079 156.088ZM177.556 154.05L175.303 157.899L182.964 159.823L177.556 154.05Z" fill="white"/>
<path d="M169.557 186.309L165.501 190.158L150.404 173.972L153.559 171.029L166.853 173.858L159.305 165.709L163.473 161.86L178.57 178.046L175.415 181.102L162.121 178.273L169.557 186.309Z" fill="white"/>
<path d="M135.533 183.819C136.322 181.782 137.899 180.197 140.152 179.065C142.405 177.933 144.659 177.594 146.686 178.046C148.827 178.612 150.404 179.857 151.418 182.008L158.178 195.251L153.108 197.854L146.686 185.064C145.898 183.366 144.546 183.027 142.631 183.932C140.828 184.838 140.265 186.196 141.166 187.781L147.588 200.571L142.518 203.174L135.758 189.931C134.744 187.894 134.632 185.856 135.533 183.819Z" fill="white"/>
<path d="M117.17 186.762L118.859 189.705L126.182 188.233L126.52 184.951L132.492 183.819L129.788 206.91L122.803 208.268L111.424 187.894L117.17 186.762ZM125.732 193.327L121.338 194.232L124.943 201.25L125.732 193.327Z" fill="white"/>
<path d="M104.326 192.535L96.7773 192.082L97.1153 186.649L110.297 187.328L109.057 209.513L103.424 209.173L104.326 192.535Z" fill="white"/>
<path d="M71.0903 201.59C68.2738 200.345 66.3585 198.307 65.3446 195.591C64.3306 192.761 64.4433 190.044 65.6826 187.102C66.9218 184.272 68.9497 182.234 71.6536 181.103C74.3575 179.971 77.174 180.084 79.8779 181.329L88.1022 184.951L79.2019 205.212L71.0903 201.59ZM77.85 186.309C76.4981 185.63 75.1461 185.63 73.7942 186.196C72.4422 186.762 71.541 187.781 70.865 189.365C70.189 190.95 70.0764 192.308 70.527 193.667C70.9776 195.025 71.9916 195.93 73.3435 196.609L76.2727 197.855L80.7792 187.554L77.85 186.309Z" fill="white"/>
<path d="M60.9507 176.009L54.3037 170.576L57.6835 166.501L68.7244 175.556L54.7543 192.761L43.8262 183.819L47.206 179.744L53.7404 185.064L55.6556 182.687L49.7972 177.82L53.0644 173.745L58.9228 178.612L60.9507 176.009Z" fill="white"/>
<path d="M46.4168 149.862C48.1067 152.805 48.4447 155.748 47.6561 158.691C46.8674 161.634 44.9522 164.011 42.1357 165.596C39.3191 167.18 36.3899 167.633 33.3481 166.841C30.4189 166.048 28.053 164.124 26.363 161.294C25.3491 159.597 24.8984 157.672 24.8984 155.748C24.8984 153.824 25.3491 152.013 26.2504 150.315L31.0948 153.145C30.6442 153.937 30.4189 154.729 30.4189 155.748C30.4189 156.654 30.6442 157.672 31.2075 158.578C32.1088 160.163 33.2354 161.068 34.8126 161.521C36.2772 161.974 37.8545 161.634 39.4318 160.842C41.009 159.936 42.023 158.804 42.361 157.22C42.8116 155.748 42.5863 154.164 41.685 152.692C41.1217 151.787 40.5584 151.107 39.7698 150.541C38.9811 150.089 38.0798 149.749 37.1785 149.862L37.2912 144.203C39.2064 144.203 40.8964 144.769 42.5863 145.788C44.0509 146.693 45.4028 148.051 46.4168 149.862Z" fill="white"/>
<path d="M36.0519 126.093C37.7418 127.338 38.9811 129.262 39.5444 131.752C40.1077 134.242 39.8824 136.506 38.8684 138.43C37.8545 140.354 36.1645 141.6 33.9113 142.052L19.4906 145.448L18.2514 139.902L32.2214 136.732C34.024 136.28 34.6999 135.148 34.2493 133.11C33.7987 131.073 32.672 130.281 30.8695 130.733L16.8994 133.903L15.6602 128.356L30.0808 124.961C32.3341 124.508 34.362 124.848 36.0519 126.093Z" fill="white"/>
<path d="M31.8842 114.887L31.9969 107.303L37.4046 107.416L37.1793 120.546L15.0977 120.207L15.2103 114.547L31.8842 114.887Z" fill="white"/>
<path d="M19.04 88.1743L24.3351 89.3062L23.2085 94.6261L39.4317 98.1349L38.3051 103.681L22.0819 100.172L20.9552 105.492L15.6602 104.36L19.04 88.1743Z" fill="white"/>
<path d="M46.3058 77.3081C46.8691 79.4587 46.5311 81.6093 45.2918 83.8731C44.1652 86.1369 42.5879 87.7215 40.56 88.5138C38.5321 89.3062 36.5042 89.193 34.4763 88.1743L21.2949 81.3829L23.8861 76.2894L36.6169 82.7412C38.3068 83.5335 39.5461 83.0808 40.4474 81.2697C41.3487 79.4587 41.0107 78.1004 39.3208 77.1949L26.59 70.7432L29.1812 65.6497L42.3626 72.441C44.5032 73.5729 45.7425 75.1575 46.3058 77.3081Z" fill="white"/>
<path d="M58.2463 65.1968L50.36 63.1594L49.008 64.6309L54.3031 69.498L50.4726 73.686L34.1367 58.745L40.1078 52.1801C41.5724 50.4822 43.4876 49.5767 45.5155 49.4635C47.6561 49.3504 49.4587 50.0295 51.1486 51.5009C52.1626 52.4065 52.8385 53.4252 53.1765 54.6702C53.5145 55.9153 53.5145 57.1604 53.2892 58.5187L62.4148 60.6692L58.2463 65.1968ZM41.7977 58.0659L45.4029 61.4616L47.5434 59.1978C47.9941 58.745 48.2194 58.1791 48.2194 57.5C48.2194 56.8208 47.8814 56.2549 47.3181 55.8021C46.7548 55.3494 46.1915 55.0098 45.5155 55.123C44.8396 55.123 44.2763 55.3494 43.8256 55.9153L41.7977 58.0659Z" fill="white"/>
<path d="M75.3717 52.4066L72.7805 50.256L66.4715 54.2176L67.3728 57.5001L62.1903 60.6694L56.6699 38.0316L62.7536 34.2964L80.5542 49.3505L75.3717 52.4066ZM65.1195 49.3505L68.95 46.9736L63.0916 41.7669L65.1195 49.3505Z" fill="white"/>
<path d="M92.0458 40.4085C90.5812 40.7481 89.3419 40.5217 88.1026 39.7294C86.8633 38.937 86.0747 37.8052 85.8494 36.4469C85.5114 35.0886 85.8494 33.7304 86.5254 32.5985C87.314 31.3534 88.4406 30.6743 89.7925 30.3347C91.1445 29.9951 92.4964 30.2215 93.623 31.0138C94.8623 31.8061 95.5383 32.8248 95.8763 34.2963C96.2142 35.7678 95.9889 37.0128 95.2003 38.2579C94.4117 39.3898 93.3977 40.0689 92.0458 40.4085Z" fill="white"/>
<path fill-rule="evenodd" clip-rule="evenodd" d="M108.831 93.7205C104.888 93.7205 101.283 95.3052 98.6918 98.0217C96.1005 100.625 94.4106 104.247 94.4106 108.209C94.4106 112.17 95.9879 115.792 98.6918 118.396C101.283 120.999 104.888 122.697 108.831 122.697C112.774 122.697 116.38 121.112 118.971 118.396C121.562 115.792 123.252 112.17 123.252 108.209C123.252 104.247 121.675 100.625 118.971 98.0217C116.38 95.3052 112.774 93.7205 108.831 93.7205ZM108.831 83.6467C115.591 83.6467 121.675 86.3633 126.181 90.8908C130.575 95.3052 133.279 101.531 133.392 108.322C133.392 115.113 130.688 121.225 126.181 125.753C121.787 130.167 115.591 132.884 108.831 132.997C102.072 132.997 95.9879 130.281 91.4814 125.753C87.0876 121.339 84.2711 115.113 84.2711 108.322C84.2711 101.531 86.975 95.4184 91.4814 90.8908C95.9879 86.3633 102.072 83.6467 108.831 83.6467ZM138.461 108.209C138.461 105.379 140.715 103.115 143.531 103.115C146.348 103.115 148.601 105.379 148.601 108.209C148.601 119.301 144.207 129.262 136.997 136.393C129.786 143.637 119.872 148.051 108.944 148.051C97.9031 148.051 87.9889 143.637 80.8912 136.393C73.6809 129.149 69.2871 119.188 69.2871 108.209C69.2871 105.379 71.5403 103.115 74.3569 103.115C77.1734 103.115 79.4266 105.379 79.4266 108.209C79.4266 116.472 82.6938 123.829 88.1016 129.262C93.5093 134.695 100.945 137.977 109.057 137.977C117.281 137.977 124.604 134.582 130.012 129.262C135.194 123.829 138.574 116.472 138.461 108.209Z" fill="white"/>
<path d="M74.1313 88.2874C77.6238 88.2874 80.4404 91.1171 80.4404 94.6259C80.4404 98.1348 77.6238 100.965 74.1313 100.965C70.6388 100.965 67.8223 98.1348 67.8223 94.6259C67.9349 91.1171 70.7515 88.2874 74.1313 88.2874Z" fill="white"/>
</svg>
